<?xml version="1.0" standalone="no"?>
<!DOCTYPE svg PUBLIC "-//W3C//DTD SVG 20010904//EN"
 "http://www.w3.org/TR/2001/REC-SVG-20010904/DTD/svg10.dtd">
<svg version="1.0" xmlns="http://www.w3.org/2000/svg"
 width="214.000000pt" height="187.000000pt" viewBox="0 0 214.000000 187.000000"
 preserveAspectRatio="xMidYMid meet">

<g transform="translate(0.000000,187.000000) scale(0.100000,-0.100000)"
fill="#FFFFFF" stroke="#FFFFFF" stroke-width="6"> 
<path d="M1689 1594 c-24 -22 -59 -52 -77 -69 -26 -23 -32 -35 -28 -56 4 -22
-10 -41 -109 -139 -69 -69 -118 -110 -123 -105 -5 6 -50 81 -102 168 -51 87
-96 160 -101 163 -11 6 -739 -307 -739 -318 0 -5 46 -86 101 -179 56 -93 100
-171 98 -173 -2 -1 -57 -47 -122 -100 l-117 -98 267 -162 268 -162 31 -90 c29
-82 33 -89 60 -92 21 -2 129 46 397 178 l369 182 -7 70 c-7 67 -6 71 21 99 27
29 28 30 9 43 -142 100 -202 155 -244 224 l-43 73 88 92 c48 51 134 138 190
194 57 56 111 114 120 127 15 24 15 27 -5 59 -26 43 -93 96 -129 103 -25 5
-37 -1 -73 -32z m132 -43 c53 -52 59 -69 31 -94 -17 -15 -22 -12 -86 48 -58
55 -66 67 -56 80 24 29 60 17 111 -34z m-80 -78 c32 -31 59 -61 59 -68 0 -7
-8 -19 -18 -28 -17 -15 -19 -15 -35 13 -18 30 -79 82 -111 94 -18 6 -18 7 -1
26 10 11 24 20 32 20 8 0 41 -25 74 -57z m-579 20 c8 -16 30 -55 48 -88 18
-33 55 -97 81 -143 27 -45 49 -85 49 -88 0 -15 -68 -84 -83 -84 -10 0 -37 -9
-60 -19 -23 -10 -105 -46 -182 -79 -184 -78 -195 -84 -195 -94 0 -16 31 -7
147 43 65 28 132 57 148 64 17 7 50 22 75 33 25 11 46 19 48 17 9 -8 -143
-197 -164 -205 -13 -5 -44 -19 -69 -30 -25 -11 -56 -25 -70 -30 -14 -5 -25
-16 -25 -25 0 -19 -4 -20 74 15 37 17 89 32 115 34 78 4 191 64 275 146 72 69
72 69 90 49 76 -90 75 -129 -10 -267 -117 -188 -197 -303 -263 -374 -58 -62
-116 -106 -127 -95 -2 2 3 21 13 43 11 25 17 66 17 114 0 61 -5 84 -26 125
-25 49 -116 145 -138 145 -20 0 -9 -20 43 -72 68 -69 92 -133 84 -227 -5 -61
-39 -151 -58 -151 -3 0 -21 37 -39 83 -60 151 -152 320 -388 711 -40 65 -72
121 -72 123 0 3 -9 18 -20 34 l-21 28 43 19 c53 24 151 66 283 122 55 23 114
48 130 55 118 54 212 94 220 94 6 1 18 -11 27 -26z m513 -84 c25 -23 45 -45
45 -49 0 -4 -57 -67 -128 -140 l-127 -132 -43 37 c-47 42 -49 48 -24 75 9 10
64 70 122 134 58 63 106 115 108 115 1 1 23 -18 47 -40z m-316 -422 c-91 -87
-162 -128 -184 -106 -16 16 -1 40 120 187 l59 72 41 -40 40 -41 -76 -72z m391
-238 c0 -5 -33 14 -72 42 -107 75 -117 90 -15 24 48 -32 87 -62 87 -66z
m-1034 -45 c99 -171 147 -264 141 -270 -2 -3 -34 14 -70 36 -37 22 -69 40 -71
40 -2 0 -40 22 -83 48 -43 27 -106 64 -140 82 -35 18 -63 38 -63 44 0 13 190
179 197 172 2 -2 42 -70 89 -152z m978 -16 c-3 -4 -20 -15 -37 -24 -18 -9 -84
-49 -148 -89 -196 -123 -191 -125 -95 27 46 73 96 157 111 187 l27 54 73 -73
c41 -41 72 -77 69 -82z m11 -48 c-3 -5 -37 -28 -75 -50 -38 -22 -72 -46 -76
-52 -4 -7 10 -2 32 11 92 55 126 72 132 66 9 -8 -29 -36 -92 -68 -28 -14 -60
-33 -71 -41 -19 -15 -18 -15 10 -3 17 7 48 22 70 33 54 29 90 40 80 25 -6 -10
-244 -134 -458 -237 l-67 -33 27 35 c24 30 173 130 428 287 64 40 69 42 60 27z"/>
<path d="M1090 1261 c-36 -15 -86 -37 -111 -49 -25 -11 -68 -30 -95 -41 -126
-50 -187 -82 -177 -92 8 -8 36 0 94 26 46 20 100 43 119 51 195 83 254 111
258 122 6 18 -16 14 -88 -17z"/>
<path d="M1130 1166 c-41 -18 -120 -52 -175 -76 -193 -82 -209 -90 -197 -102
8 -8 23 -5 54 9 24 11 125 55 226 99 100 43 182 84 182 91 0 17 -4 17 -90 -21z"/>
<path d="M1229 767 c-25 -12 -65 -31 -90 -41 -99 -42 -129 -59 -123 -67 8 -13
19 -11 67 11 23 10 82 37 131 58 86 37 119 63 79 61 -10 0 -39 -10 -64 -22z"/>
</g>
</svg>
